<svg xmlns="http://www.w3.org/2000/svg" viewBox="0 0 11 11" shape-rendering="crispEdges" role="img" aria-label="tokenburnmarket">
  
  <path d="M0.5 3.5V0.5H3.5" fill="none" stroke="#f0f0f5" stroke-opacity="0.55" stroke-width="1"/>
  <path d="M10.5 7.5V10.5H7.5" fill="none" stroke="#f0f0f5" stroke-opacity="0.55" stroke-width="1"/>
  <rect x="2" y="9" width="1" height="1" fill="#ffd900"/>
  <rect x="2" y="8" width="1" height="1" fill="#ffd900"/>
  <rect x="2" y="7" width="1" height="1" fill="#ffd900"/>
  <rect x="3" y="9" width="1" height="1" fill="#ffd900"/>
  <rect x="3" y="8" width="1" height="1" fill="#ffd900"/>
  <rect x="3" y="7" width="1" height="1" fill="#ffd900"/>
  <rect x="3" y="6" width="1" height="1" fill="#ffd900"/>
  <rect x="3" y="5" width="1" height="1" fill="#ffd900"/>
  <rect x="4" y="9" width="1" height="1" fill="#ffd900"/>
  <rect x="4" y="8" width="1" height="1" fill="#ffd900"/>
  <rect x="4" y="7" width="1" height="1" fill="#ffd900"/>
  <rect x="4" y="6" width="1" height="1" fill="#ffd900"/>
  <rect x="4" y="5" width="1" height="1" fill="#ffd900"/>
  <rect x="4" y="4" width="1" height="1" fill="#ffd900"/>
  <rect x="4" y="3" width="1" height="1" fill="#ffd900"/>
  <rect x="4" y="2" width="1" height="1" fill="#ffd900"/>
  <rect x="4" y="1" width="1" height="1" fill="#c41e3a"/>
  <rect x="5" y="9" width="1" height="1" fill="#ffd900"/>
  <rect x="5" y="8" width="1" height="1" fill="#ffd900"/>
  <rect x="5" y="7" width="1" height="1" fill="#ffd900"/>
  <rect x="5" y="6" width="1" height="1" fill="#ffd900"/>
  <rect x="5" y="5" width="1" height="1" fill="#ffd900"/>
  <rect x="5" y="4" width="1" height="1" fill="#ffd900"/>
  <rect x="6" y="9" width="1" height="1" fill="#ffd900"/>
  <rect x="6" y="8" width="1" height="1" fill="#ffd900"/>
  <rect x="6" y="7" width="1" height="1" fill="#ffd900"/>
  <rect x="6" y="6" width="1" height="1" fill="#ffd900"/>
</svg>
